<svg width="24" height="24" viewBox="0 0 24 24" fill="none" xmlns="http://www.w3.org/2000/svg">
<g id="LinkedIn" clip-path="url(#clip0_138_798)">
<path id="Icon" d="M18.9902 0H4.99023C2.22923 0 -0.00976562 2.239 -0.00976562 5V19C-0.00976562 21.761 2.22923 24 4.99023 24H18.9902C21.7522 24 23.9902 21.761 23.9902 19V5C23.9902 2.239 21.7522 0 18.9902 0ZM7.99023 19H4.99023V8H7.99023V19ZM6.49023 6.732C5.52423 6.732 4.74023 5.942 4.74023 4.968C4.74023 3.994 5.52423 3.204 6.49023 3.204C7.45623 3.204 8.24023 3.994 8.24023 4.968C8.24023 5.942 7.45723 6.732 6.49023 6.732ZM19.9902 19H16.9902V13.396C16.9902 10.028 12.9902 10.283 12.9902 13.396V19H9.99023V8H12.9902V9.765C14.3862 7.179 19.9902 6.988 19.9902 12.241V19Z" fill="#1E1E1E"/>
</g>
<defs>
<clipPath id="clip0_138_798">
<rect width="24" height="24" fill="white" transform="translate(-0.00976562)"/>
</clipPath>
</defs>
</svg>
