<svg width="201" height="58" viewBox="0 0 201 58" fill="none" xmlns="http://www.w3.org/2000/svg">
<path d="M57.8076 39.3518L63.3934 42.6978L63.3623 35.16L57.8076 31.8442V39.3518Z" fill="#BDBBBB"/>
<path d="M19.5778 25.7647L19.5771 18.5052L13.3516 14.702V22.0978L19.5778 25.7647Z" fill="#A4D55D"/>
<path d="M26.1458 42.1476V20.8203L50.2851 35.2377V27.8459L20.2305 9.81409V42.1476H26.1458Z" fill="#BDBBBB"/>
<path d="M57.167 47.3727V15.0393H50.9249V36.583L26.7856 22.0202V29.4243L57.167 47.3727Z" fill="#A4D55D"/>
<path d="M72.5111 17.3362V41.4285H71.522V14.2667L90.3502 38.7159V14.6593H91.3394V41.8211L72.5111 17.3362ZM106.219 42.1424C103.832 42.1424 101.615 41.488 99.5682 40.1793C97.5216 38.8706 95.896 37.1335 94.6906 34.9682C93.5083 32.7791 92.9169 30.4353 92.9169 27.9368C92.9169 25.4621 93.5199 23.154 94.7247 21.0125C95.9301 18.8472 97.5557 17.134 99.6023 15.8728C101.649 14.5879 103.866 13.9454 106.254 13.9454C108.664 13.9454 110.881 14.576 112.905 15.8371C114.929 17.0983 116.532 18.8115 117.714 20.9768C118.92 23.1184 119.522 25.4384 119.522 27.9368C119.522 30.5067 118.92 32.8861 117.714 35.0753C116.532 37.2406 114.917 38.9657 112.871 40.2507C110.847 41.5118 108.63 42.1424 106.219 42.1424ZM106.219 41.1073C108.402 41.1073 110.426 40.5243 112.291 39.3584C114.156 38.1686 115.634 36.5744 116.725 34.5756C117.84 32.553 118.396 30.3639 118.396 28.0082C118.396 25.6763 117.851 23.511 116.759 21.5122C115.668 19.5134 114.19 17.9311 112.325 16.7651C110.461 15.5754 108.437 14.9805 106.254 14.9805C104.048 14.9805 102.013 15.5754 100.148 16.7651C98.2836 17.9311 96.7944 19.5134 95.6797 21.5122C94.5882 23.511 94.0425 25.6763 94.0425 28.0082C94.0425 30.3639 94.5882 32.553 95.6797 34.5756C96.7944 36.5744 98.2836 38.1686 100.148 39.3584C102.013 40.5243 104.036 41.1073 106.219 41.1073ZM140.763 14.6593L129.064 42.0353L117.365 14.6593H118.593L129.166 39.3227L139.604 14.6593H140.763ZM140.885 14.6593H142.01V41.4285H140.885V14.6593ZM152.522 42.1424C151.044 42.1424 149.725 41.8211 148.565 41.1787C147.406 40.5124 146.496 39.5725 145.837 38.359C145.177 37.1454 144.847 35.7297 144.847 34.1116V14.6593H145.973V34.0759C145.973 35.5036 146.257 36.7528 146.826 37.8236C147.394 38.8706 148.167 39.6796 149.145 40.2507C150.145 40.8217 151.26 41.1073 152.488 41.1073C153.716 41.1073 154.818 40.8337 155.796 40.2864C156.797 39.7153 157.57 38.9063 158.116 37.8593C158.684 36.7885 158.969 35.5274 158.969 34.0759V14.6593H160.094V34.0402C160.094 35.6821 159.776 37.1217 159.139 38.359C158.502 39.5725 157.604 40.5124 156.444 41.1787C155.307 41.8211 154 42.1424 152.522 42.1424ZM189 14.6593V41.4285H187.875V16.3725L175.8 41.9282L163.794 16.0513V41.4285H162.668V14.6593H164.271L175.8 39.5011L187.431 14.6593H189Z" fill="white"/>
</svg>
