<svg width="201" height="58" viewBox="0 0 201 58" fill="none" xmlns="http://www.w3.org/2000/svg">
<path d="M57.8076 39.3518L63.3934 42.6978L63.3623 35.16L57.8076 31.8442V39.3518Z" fill="#BDBBBB"/>
<path d="M19.5778 25.7648L19.5771 18.5054L13.3516 14.7021V22.0979L19.5778 25.7648Z" fill="#A4D55D"/>
<path d="M26.1458 42.1475V20.8201L50.2851 35.2376V27.8458L20.2305 9.81396V42.1475H26.1458Z" fill="#BDBBBB"/>
<path d="M57.167 47.3727V15.0393H50.9249V36.583L26.7856 22.0202V29.4243L57.167 47.3727Z" fill="#A4D55D"/>
<path d="M72.5111 17.3363V41.4286H71.522V14.2668L90.3502 38.716V14.6594H91.3394V41.8212L72.5111 17.3363ZM106.219 42.1425C103.832 42.1425 101.615 41.4881 99.5682 40.1794C97.5216 38.8707 95.896 37.1336 94.6906 34.9683C93.5083 32.7792 92.9169 30.4354 92.9169 27.9369C92.9169 25.4623 93.5199 23.1542 94.7247 21.0126C95.9301 18.8473 97.5557 17.1341 99.6023 15.8729C101.649 14.588 103.866 13.9456 106.254 13.9456C108.664 13.9456 110.881 14.5761 112.905 15.8372C114.929 17.0984 116.532 18.8116 117.714 20.9769C118.92 23.1185 119.522 25.4385 119.522 27.9369C119.522 30.5068 118.92 32.8863 117.714 35.0754C116.532 37.2407 114.917 38.9659 112.871 40.2508C110.847 41.5119 108.63 42.1425 106.219 42.1425ZM106.219 41.1074C108.402 41.1074 110.426 40.5244 112.291 39.3585C114.156 38.1687 115.634 36.5745 116.725 34.5757C117.84 32.5532 118.396 30.364 118.396 28.0083C118.396 25.6764 117.851 23.5111 116.759 21.5123C115.668 19.5136 114.19 17.9312 112.325 16.7653C110.461 15.5755 108.437 14.9806 106.254 14.9806C104.048 14.9806 102.013 15.5755 100.148 16.7653C98.2836 17.9312 96.7944 19.5136 95.6797 21.5123C94.5882 23.5111 94.0425 25.6764 94.0425 28.0083C94.0425 30.364 94.5882 32.5532 95.6797 34.5757C96.7944 36.5745 98.2836 38.1687 100.148 39.3585C102.013 40.5244 104.036 41.1074 106.219 41.1074ZM140.763 14.6594L129.064 42.0354L117.365 14.6594H118.593L129.166 39.3228L139.604 14.6594H140.763ZM140.885 14.6594H142.01V41.4286H140.885V14.6594ZM152.522 42.1425C151.044 42.1425 149.725 41.8213 148.565 41.1788C147.406 40.5126 146.496 39.5726 145.837 38.3591C145.177 37.1456 144.847 35.7298 144.847 34.1117V14.6594H145.973V34.076C145.973 35.5037 146.257 36.7529 146.826 37.8237C147.394 38.8707 148.167 39.6797 149.145 40.2508C150.145 40.8219 151.26 41.1074 152.488 41.1074C153.716 41.1074 154.818 40.8338 155.796 40.2865C156.797 39.7154 157.57 38.9064 158.116 37.8594C158.684 36.7886 158.969 35.5275 158.969 34.076V14.6594H160.094V34.0403C160.094 35.6822 159.776 37.1218 159.139 38.3591C158.502 39.5726 157.604 40.5126 156.444 41.1788C155.307 41.8213 154 42.1425 152.522 42.1425ZM189 14.6594V41.4286H187.875V16.3726L175.8 41.9283L163.794 16.0514V41.4286H162.668V14.6594H164.271L175.8 39.5012L187.431 14.6594H189Z" fill="black"/>
</svg>
